# xmcd
#
# Track frame offsets:
#	150
#	16405
#	34050
#	50164
#	67161
#	85832
#	103574
#	118770
#	131500
#	146137
#	160241
#	178822
#	195371
#	205338
#	218748
#	233937
#
# Disc length: 3135 seconds
#
# Revision: 1
# Processed by: cddbd v1.5.2PL0 Copyright (c) Steve Scherf et al.
# Submitted via: audiograbber 1.83.01
#
DISCID=ed0c3d10
DTITLE=Various Artist - Truckstop Feuchtwangen
DYEAR=1900
DGENRE=Country
TTITLE0=Dirk Maverick - Wir Tanken Euch Auf
TTITLE1=Roxy Rose - Es Ist Heiss In Deinem Truck
TTITLE2=Gunther Gabriel - Freund Aller Fahrer
TTITLE3=Nashville Music Company - Country In Good Old Germany
TTITLE4=Dirk Maverick - Bunte Sterne
TTITLE5=Katja Kaye - Dr. Honky Tonk
TTITLE6=Gunther Gabriel - Mein Laster Ist Mein Laster
TTITLE7=Naschville Music Company - Ich Bin Wieder Auf Der Autobahn
TTITLE8=Dirk Maverick - Was Gaeb Ich Fuer Nen Ritt
TTITLE9=Roxy Rose - Wir Hoeren Uns Mehr Truckerlieder An
TTITLE10=Gunther Gabriel - Seine Strassen
TTITLE11=Dirk Maverick - Die Indianer Sind Einsam
TTITLE12=Nashville Music Company - Du Bist Mir Im Blut
TTITLE13=Dirk Maverick - Nur Wir Zwei
TTITLE14=Maver X - Ghostriders In The Sky
TTITLE15=Mavericks Band - Bye Bye Love
EXTD=
EXTT0=
EXTT1=
EXTT2=
EXTT3=
EXTT4=
EXTT5=
EXTT6=
EXTT7=
EXTT8=
EXTT9=
EXTT10=
EXTT11=
EXTT12=
EXTT13=
EXTT14=
EXTT15=
PLAYORDER=
